<svg xmlns="http://www.w3.org/2000/svg" width="82" height="82" viewBox="0 0 82 82" fill="none">
  <g filter="url(#filter0_d_914_463)">
    <mask id="path-1-inside-1_914_463" fill="white">
      <path d="M61.4879 20.4865C58.7976 17.7962 55.6037 15.6621 52.0886 14.2061C48.5735 12.7501 44.8061 12.0007 41.0014 12.0007C37.1967 12.0007 33.4292 12.7501 29.9142 14.2061C26.3991 15.6621 23.2052 17.7962 20.5149 20.4865C17.8245 23.1768 15.6904 26.3707 14.2344 29.8858C12.7784 33.4009 12.0291 37.1683 12.0291 40.973C12.0291 44.7777 12.7784 48.5452 14.2344 52.0603C15.6904 55.5753 17.8245 58.7692 20.5149 61.4596L41.0014 40.973L61.4879 20.4865Z"/>
    </mask>
    <path d="M61.4879 20.4865C58.7976 17.7962 55.6037 15.6621 52.0886 14.2061C48.5735 12.7501 44.8061 12.0007 41.0014 12.0007C37.1967 12.0007 33.4292 12.7501 29.9142 14.2061C26.3991 15.6621 23.2052 17.7962 20.5149 20.4865C17.8245 23.1768 15.6904 26.3707 14.2344 29.8858C12.7784 33.4009 12.0291 37.1683 12.0291 40.973C12.0291 44.7777 12.7784 48.5452 14.2344 52.0603C15.6904 55.5753 17.8245 58.7692 20.5149 61.4596L41.0014 40.973L61.4879 20.4865Z" fill="#C5E897" stroke="white" stroke-width="2" mask="url(#path-1-inside-1_914_463)"/>
    <mask id="path-2-inside-2_914_463" fill="white">
      <path d="M20.5408 20.5117C17.8505 23.2021 15.7164 26.396 14.2604 29.911C12.8044 33.4261 12.055 37.1936 12.055 40.9983C12.055 44.803 12.8044 48.5704 14.2604 52.0855C15.7164 55.6006 17.8505 58.7945 20.5408 61.4848C23.2311 64.1752 26.425 66.3092 29.9401 67.7652C33.4552 69.2212 37.2226 69.9706 41.0273 69.9706C44.832 69.9706 48.5995 69.2212 52.1146 67.7652C55.6297 66.3092 58.8236 64.1751 61.5139 61.4848L41.0273 40.9983L20.5408 20.5117Z"/>
    </mask>
    <path d="M20.5408 20.5117C17.8505 23.2021 15.7164 26.396 14.2604 29.911C12.8044 33.4261 12.055 37.1936 12.055 40.9983C12.055 44.803 12.8044 48.5704 14.2604 52.0855C15.7164 55.6006 17.8505 58.7945 20.5408 61.4848C23.2311 64.1752 26.425 66.3092 29.9401 67.7652C33.4552 69.2212 37.2226 69.9706 41.0273 69.9706C44.832 69.9706 48.5995 69.2212 52.1146 67.7652C55.6297 66.3092 58.8236 64.1751 61.5139 61.4848L41.0273 40.9983L20.5408 20.5117Z" fill="#0766AD" stroke="white" stroke-width="2" mask="url(#path-2-inside-2_914_463)"/>
    <mask id="path-3-inside-3_914_463" fill="white">
      <path d="M20.4861 20.5117C17.7958 23.202 15.6617 26.3959 14.2057 29.911C12.7497 33.4261 12.0003 37.1935 12.0003 40.9982C12.0003 44.8029 12.7497 48.5704 14.2057 52.0855C15.6617 55.6005 17.7958 58.7944 20.4861 61.4848L40.9727 40.9982L20.4861 20.5117Z"/>
    </mask>
    <path d="M20.4861 20.5117C17.7958 23.202 15.6617 26.3959 14.2057 29.911C12.7497 33.4261 12.0003 37.1935 12.0003 40.9982C12.0003 44.8029 12.7497 48.5704 14.2057 52.0855C15.6617 55.6005 17.7958 58.7944 20.4861 61.4848L40.9727 40.9982L20.4861 20.5117Z" fill="#29ADB2" stroke="white" stroke-width="2" mask="url(#path-3-inside-3_914_463)"/>
    <mask id="path-4-inside-4_914_463" fill="white">
      <path d="M51.7157 30.2847C50.3149 28.8838 48.6518 27.7726 46.8215 27.0145C44.9912 26.2564 43.0295 25.8662 41.0484 25.8662C39.0673 25.8662 37.1056 26.2564 35.2753 27.0145C33.445 27.7726 31.782 28.8838 30.3811 30.2847C28.9803 31.6855 27.8691 33.3486 27.111 35.1789C26.3528 37.0092 25.9626 38.9709 25.9626 40.952C25.9626 42.9331 26.3528 44.8948 27.111 46.7251C27.8691 48.5554 28.9803 50.2184 30.3811 51.6192L41.0484 40.952L51.7157 30.2847Z"/>
    </mask>
    <path d="M51.7157 30.2847C50.3149 28.8838 48.6518 27.7726 46.8215 27.0145C44.9912 26.2564 43.0295 25.8662 41.0484 25.8662C39.0673 25.8662 37.1056 26.2564 35.2753 27.0145C33.445 27.7726 31.782 28.8838 30.3811 30.2847C28.9803 31.6855 27.8691 33.3486 27.111 35.1789C26.3528 37.0092 25.9626 38.9709 25.9626 40.952C25.9626 42.9331 26.3528 44.8948 27.111 46.7251C27.8691 48.5554 28.9803 50.2184 30.3811 51.6192L41.0484 40.952L51.7157 30.2847Z" fill="#EEFFD7" stroke="white" stroke-width="2" mask="url(#path-4-inside-4_914_463)"/>
    <path d="M27.586 35.3833C28.2552 33.7678 29.2088 32.2871 30.4003 31.0109L40.708 41.3186L51.0156 51.6263C49.7395 52.8178 48.2588 53.7714 46.6433 54.4406C44.8736 55.1736 42.977 55.5509 41.0615 55.5509C39.1461 55.5509 37.2494 55.1736 35.4798 54.4406C33.7101 53.7076 32.1022 52.6332 30.7478 51.2788C29.3934 49.9244 28.319 48.3164 27.586 46.5468C26.853 44.7772 26.4757 42.8805 26.4757 40.9651C26.4757 39.0496 26.853 37.1529 27.586 35.3833Z" fill="#76BBEF" stroke="white"/>
    <mask id="path-6-inside-5_914_463" fill="white">
      <path d="M30.3659 30.2977C28.9651 31.6986 27.8539 33.3616 27.0957 35.1919C26.3376 37.0222 25.9474 38.9839 25.9474 40.965C25.9474 42.9461 26.3376 44.9078 27.0957 46.7381C27.8539 48.5684 28.9651 50.2314 30.3659 51.6323L41.0332 40.965L30.3659 30.2977Z"/>
    </mask>
    <path d="M30.3659 30.2977C28.9651 31.6986 27.8539 33.3616 27.0957 35.1919C26.3376 37.0222 25.9474 38.9839 25.9474 40.965C25.9474 42.9461 26.3376 44.9078 27.0957 46.7381C27.8539 48.5684 28.9651 50.2314 30.3659 51.6323L41.0332 40.965L30.3659 30.2977Z" fill="#CBF7F8" stroke="white" stroke-width="2" mask="url(#path-6-inside-5_914_463)"/>
  </g>
  <defs>
    <filter id="filter0_d_914_463" x="8" y="12.0007" width="57.5137" height="65.9699" filterUnits="userSpaceOnUse" color-interpolation-filters="sRGB">
      <feFlood flood-opacity="0" result="BackgroundImageFix"/>
      <feColorMatrix in="SourceAlpha" type="matrix" values="0 0 0 0 0 0 0 0 0 0 0 0 0 0 0 0 0 0 127 0" result="hardAlpha"/>
      <feOffset dy="4"/>
      <feGaussianBlur stdDeviation="2"/>
      <feComposite in2="hardAlpha" operator="out"/>
      <feColorMatrix type="matrix" values="0 0 0 0 0 0 0 0 0 0 0 0 0 0 0 0 0 0 0.25 0"/>
      <feBlend mode="normal" in2="BackgroundImageFix" result="effect1_dropShadow_914_463"/>
      <feBlend mode="normal" in="SourceGraphic" in2="effect1_dropShadow_914_463" result="shape"/>
    </filter>
  </defs>
</svg>